<?xml version="1.0" encoding="UTF-8" standalone="no"?>
<!-- Created with Inkscape (http://www.inkscape.org/) -->

<svg
   xmlns:dc="http://purl.org/dc/elements/1.1/"
   xmlns:cc="http://creativecommons.org/ns#"
   xmlns:rdf="http://www.w3.org/1999/02/22-rdf-syntax-ns#"
   xmlns:svg="http://www.w3.org/2000/svg"
   xmlns="http://www.w3.org/2000/svg"
   xmlns:sodipodi="http://sodipodi.sourceforge.net/DTD/sodipodi-0.dtd"
   xmlns:inkscape="http://www.inkscape.org/namespaces/inkscape"
   width="297mm"
   height="210mm"
   viewBox="0 0 297 210"
   version="1.1"
   id="svg5332"
   sodipodi:docname="logo.svg"
   inkscape:version="0.92.4 (5da689c313, 2019-01-14)">
  <defs
     id="defs5326" />
  <sodipodi:namedview
     id="base"
     pagecolor="#ffffff"
     bordercolor="#666666"
     borderopacity="1.0"
     inkscape:pageopacity="0.0"
     inkscape:pageshadow="2"
     inkscape:zoom="0.35"
     inkscape:cx="315.02992"
     inkscape:cy="445.71429"
     inkscape:document-units="px"
     inkscape:current-layer="layer1"
     showgrid="false"
     inkscape:window-width="1657"
     inkscape:window-height="788"
     inkscape:window-x="519"
     inkscape:window-y="279"
     inkscape:window-maximized="0" />
  <metadata
     id="metadata5329">
    <rdf:RDF>
      <cc:Work
         rdf:about="">
        <dc:format>image/svg+xml</dc:format>
        <dc:type
           rdf:resource="http://purl.org/dc/dcmitype/StillImage" />
        <dc:title></dc:title>
      </cc:Work>
    </rdf:RDF>
  </metadata>
  <g
     inkscape:label="Ebene 1"
     inkscape:groupmode="layer"
     id="layer1"
     transform="translate(0,-87)">
    <path
       style="fill:#ffffff;stroke-width:0.44132867;fill-opacity:1"
       d="m 57.197106,227.49556 c -0.427427,0.20389 -1.091259,0.5063 -1.673227,0.17396 -0.485852,-0.37224 -1.099976,-1.04172 -1.495809,-1.17846 -0.724638,-0.26251 -0.829185,-0.58861 -1.711051,-5.39494 -0.261382,-1.45488 -0.738991,-3.04493 -1.0476,-3.5306 -0.989075,-1.55096 -1.783722,-5.20389 -1.824513,-8.38506 -0.02058,-1.69942 -0.261383,-4.24734 -0.552445,-5.66249 -0.427427,-2.15048 -0.398683,-2.91025 0.174213,-4.62015 0.672368,-1.98169 0.66622,-2.06612 -0.232637,-2.66551 -1.097102,-0.72772 -1.190169,-1.51324 -0.261383,-2.27556 0.491963,-0.40717 0.663146,-1.48998 0.663146,-4.17844 0,-3.00546 -0.145531,-3.75943 -0.838407,-4.38801 -1.193043,-1.07957 -1.548085,-3.48414 -0.745139,-5.03772 0.360773,-0.69797 0.773834,-2.91168 0.919378,-4.91719 0.203955,-2.73834 0.5555,-4.21018 1.443333,-5.91272 0.648792,-1.24543 1.204722,-3.0612 1.23086,-4.03203 0.09222,-3.30694 0.756413,-7.50103 1.289179,-8.16446 0.291062,-0.36414 1.193043,-2.19993 2.004906,-4.07886 0.811757,-1.87987 1.935202,-3.85028 2.499643,-4.37984 0.564729,-0.53 1.023925,-1.21345 1.023925,-1.51897 0,-0.30553 0.596528,-0.97782 1.324027,-1.49871 0.776914,-0.55245 1.324028,-1.34146 1.327002,-1.906 0.0026,-1.35897 1.577192,-3.7815 2.755676,-4.23898 1.239677,-0.47949 2.351238,-1.59754 3.451825,-3.46513 0.468393,-0.79431 1.347297,-1.63538 1.958372,-1.86528 1.132056,-0.43023 3.015294,-2.03413 5.833085,-4.96383 0.875307,-0.91122 1.871042,-1.65584 2.211531,-1.65584 0.340258,0 1.562639,-0.79431 2.714984,-1.76626 1.152352,-0.97164 2.316389,-1.76639 2.586975,-1.76639 0.261382,0 0.901956,-0.57302 1.399667,-1.27455 0.901957,-1.26582 2.208663,-1.84202 4.57855,-2.02241 0.707217,-0.0623 1.533551,-0.52376 1.938096,-1.09996 0.38721,-0.55245 2.115501,-1.6761 3.841734,-2.49386 3.1104,-1.47539 3.874906,-1.89153 6.005559,-3.2833 0.604819,-0.39594 2.196999,-0.98087 3.530659,-1.30074 1.33572,-0.31987 2.92396,-0.92862 3.53065,-1.35318 0.60545,-0.424 2.04567,-0.90193 3.19751,-1.05918 1.23658,-0.17397 2.61301,-0.72155 3.35763,-1.35025 1.10296,-0.92862 1.55395,-1.03019 3.5513,-0.79126 1.58594,0.17397 2.42127,0.52065 2.7268,1.09118 0.23258,0.45081 0.90811,0.81788 1.47826,0.81788 1.06505,0 1.57721,-0.73078 1.57721,-2.2639 0,-1.56562 1.96124,-2.84597 5.26382,-3.43726 1.69649,-0.30241 3.26958,-0.43958 3.49368,-0.29929 0.38721,0.23258 3.03769,-0.0624 9.1914,-1.00344 1.78965,-0.29119 3.30226,-0.26251 4.4132,0.0312 0.93167,0.23258 2.48519,0.55245 3.45565,0.67846 0.97164,0.1166 2.1213,0.47763 2.55496,0.78004 0.46515,0.32298 1.55395,0.46826 2.64805,0.34917 1.0209,-0.1166 3.90284,1.51311 4.55643,1.76633 1.09416,0.42212 1.1552,0.57302 0.7708,1.91192 -0.80566,2.81391 -0.51753,3.118 1.17859,1.23957 1.69942,-1.87987 1.0767,-3.62525 2.98414,-2.69757 0.65489,0.31987 2.28428,0.8384 3.61888,1.15534 1.3356,0.31488 2.73535,0.96035 3.11134,1.43161 0.37536,0.47139 1.36764,1.03306 2.20566,1.24556 8.46631,2.14456 9.83133,2.57529 10.20233,3.23935 0.23257,0.40467 0.99833,1.03885 1.71401,1.40836 0.71544,0.36975 1.3008,0.99215 1.3008,1.38223 0,1.24256 -1.81589,3.70325 -3.53739,4.78931 -2.46187,1.55389 -6.08948,5.01671 -7.62504,7.27774 -0.74206,1.09123 -2.58109,3.47541 -4.08522,5.29592 -4.35166,5.26412 -8.58416,11.78472 -8.58416,13.22519 0,0.2625 0.4982,0.89376 1.10296,1.41996 1.39963,1.21643 1.3851,1.55395 -0.23258,5.21355 -0.72772,1.65864 -1.32399,3.42011 -1.32399,3.91363 0,0.49196 -0.29431,1.06218 -0.6519,1.26295 -0.87631,0.49196 -2.39204,5.1643 -1.93805,5.97619 0.2039,0.34918 0.17397,1.21058 -0.0312,1.9118 -0.82924,2.6743 -1.36771,5.76749 -1.12042,6.41609 0.14528,0.37224 0.99527,1.01878 1.89446,1.44047 0.89888,0.42212 2.39484,1.28621 3.32252,1.92052 l 1.68783,1.1524 1.84489,-2.12722 c 1.01267,-1.16974 2.45314,-3.14301 3.19551,-4.38501 0.99827,-1.66763 1.65279,-2.29321 2.50833,-2.39509 1.46085,-0.17397 1.8944,0.60544 2.55788,4.58541 0.29119,1.67903 0.80355,4.44469 1.164,6.14355 0.35791,1.69942 0.80361,4.38033 0.984,5.9581 0.17396,1.57722 0.59048,3.35121 0.90498,3.94044 0.31488,0.59048 0.82306,2.17954 1.12615,3.5306 0.30242,1.35318 0.89576,3.65031 1.31814,5.10674 0.71032,2.45894 1.53656,5.74973 2.38623,9.48846 0.20389,0.84968 0.6693,2.29601 1.06212,3.21116 0.82611,1.93511 1.40842,4.25033 3.80358,15.10393 3.79553,17.20317 4.28587,20.05343 3.65405,21.23377 -0.33234,0.62352 -0.29119,1.66157 0.17396,3.71721 0.34668,1.56848 0.82099,4.34218 1.05333,6.16282 0.7564,5.96079 1.26881,7.65965 3.85607,12.77032 2.63789,5.05187 13.28835,15.19896 1.80031,10.42998 -0.54434,-0.38098 -0.80666,7.33685 -1.31539,7.33685 -1.14367,0 -3.43071,-9.76412 -4.13847,-11.67392 -0.29119,-0.7882 -1.25411,-3.41711 -2.13876,-5.84437 -0.88454,-2.42689 -1.99915,-4.9513 -2.4764,-5.60925 -0.57302,-0.78814 -0.87325,-1.91765 -0.88142,-3.30986 -0.0125,-2.4297 -4.50404,-21.23377 -6.6312,-27.76109 -0.50319,-1.5423 -2.28436,-2.50839 -5.93573,-3.22245 -1.21351,-0.23258 -4.0932,-0.84663 -6.39938,-1.35611 -2.30468,-0.50942 -5.4823,-1.12328 -7.05888,-1.36184 -3.65674,-0.55557 -3.99488,-0.91123 -3.51843,-3.71772 0.51565,-3.03813 0.51565,-6.84065 0.001,-6.84065 -0.74206,0 -1.19605,1.43181 -1.78098,5.61667 -0.65184,4.68387 -0.51565,5.03834 2.45607,6.35592 2.64805,1.17273 4.16297,2.74707 4.16297,4.31898 0,0.73083 0.37225,2.27849 0.82918,3.4413 0.45704,1.16114 0.96858,3.14545 1.14067,4.40746 0.17397,1.26296 0.57926,2.51419 0.90498,2.7848 0.37537,0.31176 0.50631,1.01267 0.35791,1.92639 -0.17396,1.0651 0.17459,2.29015 1.33572,4.74385 0.89376,1.87987 1.47246,3.68429 1.34145,4.18018 -0.26125,1.01573 1.32693,3.26653 2.31341,3.26653 2.07298,-2.59087 1.11262,6.5451 1.83136,9.78445 0.78309,0.78308 1.3328,3.1e-4 1.5307,-2.17374 0.0923,-1.03007 0.29119,-1.9759 0.40155,-2.10091 3.73487,0.73183 4.84656,4.50373 4.6643,7.15615 -0.2625,3.12231 0.0923,4.33139 1.51323,5.34007 0.44769,0.31675 1.11743,1.16693 1.48986,1.88274 0.61106,1.17846 0.60794,1.32979 -0.0312,1.57415 -0.38721,0.14528 -1.35898,-0.0923 -2.16501,-0.51752 -1.615,-0.8702 -3.04674,-0.61106 -2.82558,0.50942 0.14591,0.79431 9.88783,4.70999 10.84513,4.3635 l 6.26251,0.38658 c 1.34445,-0.20389 2.73959,-8.90576 2.73959,-9.5316 3.94555,3.69265 5.55531,5.40093 6.33933,11.75872 -0.36414,0.59048 -7.66476,3.11308 -10.38677,2.27157 -1.09123,-0.33234 -3.57461,-0.95113 -5.51646,-1.3765 -1.94091,-0.424 -4.02705,-1.01573 -4.6338,-1.30947 -0.60482,-0.29742 -2.0428,-0.66 -3.1919,-0.80865 -1.14947,-0.14528 -3.47709,-0.9717 -5.17452,-1.82749 -1.69649,-0.85586 -3.4466,-1.55396 -3.88681,-1.55396 -0.43959,0 -2.13303,-0.69592 -3.76355,-1.54522 -1.62952,-0.84968 -3.22918,-1.54522 -3.5551,-1.54522 -0.3261,0 -0.94296,-0.38721 -1.3707,-0.85891 -0.80865,-0.8937 -7.70061,-4.43646 -8.63148,-4.43646 -0.76257,0 -4.24328,-1.57147 -10.5818,-4.78139 -4.36382,-2.20865 -5.81495,-2.74994 -6.9184,-2.57242 -1.04472,0.17397 -1.60054,-0.005 -2.20579,-0.68669 -0.44458,-0.50007 -1.46953,-1.18719 -2.27556,-1.53057 -1.32693,-0.5618 -1.43748,-0.74823 -1.1698,-1.97009 0.17396,-0.74206 0.87325,-2.2028 1.57721,-3.24833 0.90505,-1.34158 1.35598,-2.65697 1.53637,-4.47947 0.49196,-4.9871 -1.22797,-12.27045 -3.6447,-15.4394 l -1.12609,-1.47532 -4.25407,2.18246 c -2.33966,1.20185 -6.80281,3.43264 -9.91726,4.96003 -9.15056,4.48802 -10.37124,5.13375 -11.27168,5.96223 -2.729547,2.51131 -6.201655,4.16965 -7.986126,3.81286 -1.897267,-0.37848 -3.195948,-1.9729 -3.025102,-3.70549 0.09228,-0.79126 0.439586,-1.58301 0.803539,-1.7634 0.36414,-0.17458 1.239571,-0.59671 1.946712,-0.92861 0.707204,-0.33234 1.612128,-1.13782 2.007881,-1.78965 0.398433,-0.6519 1.705283,-1.86235 2.907068,-2.6917 1.201848,-0.82611 2.252298,-1.86235 2.339598,-2.29888 0.17396,-0.88454 -1.21638,-3.60692 -3.042936,-5.96048 -0.660065,-0.84968 -2.086382,-3.43145 -3.172753,-5.73726 -1.085435,-2.30468 -2.479204,-4.65512 -3.097368,-5.22016 -1.01267,-0.92862 -1.102832,-1.27168 -0.908105,-3.53053 0.291187,-3.359 -0.424621,-4.40011 -2.508391,-3.67295 -0.800483,0.29119 -2.415286,0.50942 -3.587934,0.50942 -15.665009,6.00569 -9.950918,2.2553 -28.161798,9.70625 z m 91.771414,41.76818 c 0,-0.34357 -5.68893,-3.78668 -8.82646,-5.34375 -1.82163,-0.90505 -3.96887,-2.04573 -4.7744,-2.54044 -1.43461,-0.87842 -2.58396,-0.64878 -1.93805,0.38721 0.17396,0.26251 3.49025,2.10678 7.37389,4.06957 6.27648,3.17195 8.16452,3.96464 8.16452,3.42753 z m 6.74244,-0.4159 c -0.20389,-0.42399 -0.32299,-1.56561 -0.29119,-2.53744 0.17397,-4.09439 -16.15526,-31.51278 -17.12385,-32.24755 -0.9399,-0.7072 -6.36976,-17.04796 -5.65638,-18.15666 0.69492,-1.05931 0.69798,-1.26008 0.0623,-2.50265 -0.71331,-1.37924 -1.455,-1.52477 -1.98169,-0.38721 -0.17459,0.34918 -0.51254,1.06218 -0.78003,1.58301 -0.40155,0.78615 5.16236,17.56886 6.23857,19.26548 1.36184,2.14749 17.85113,30.43072 17.14742,31.7516 -0.29742,0.55556 -0.23258,1.04172 0.20389,1.62665 0.34668,0.45705 0.63749,1.18146 0.64573,1.60633 0.006,0.48573 0.3579,0.77074 0.94295,0.77074 0.72772,0 0.85274,-0.17396 0.57303,-0.77074 z m -35.50978,-33.85587 c 1.62385,-0.93167 3.49836,-1.83036 4.16797,-1.99622 1.36184,-0.33733 2.07777,-2.07765 1.33858,-3.25038 -0.64061,-1.01573 -1.5946,-0.86402 -1.87401,0.29742 -0.14528,0.55057 -0.76257,1.34438 -1.40256,1.76626 -4.62114,3.0468 -22.25229,14.87479 -22.829867,15.57557 -0.607938,0.73894 -0.582373,0.7738 0.357905,0.47451 0.558682,-0.17397 18.616382,-11.93274 20.239422,-12.86679 z m -13.74658,-13.5122 c 2.3328,-2.75162 7.96692,-6.3841 8.28704,-6.76807 0.51753,-0.62521 0.41278,-0.6754 -0.9573,-0.46328 -2.94049,0.46017 -12.52253,8.0478 -16.4775,10.13543 -4.947247,0.0923 -0.755402,2.5476 2.436119,1.64973 z m 75.58483,-1.49272 1.51611,-1.29494 -1.03892,-2.21751 c -2.21701,-2.63951 -14.62937,-7.72275 -5.29056,-7.39665 0.005,-0.42399 0.39906,-1.26875 0.87325,-1.87694 1.2223,-1.56268 1.09709,-2.48799 -0.4159,-3.01406 -1.89938,-1.27249 -1.60751,-2.33436 -1.38192,-4.42031 0.39282,-0.73283 0.26251,-1.30946 -0.67235,-3.02547 -0.63749,-1.164 -1.62958,-2.4822 -2.21152,-2.92777 -1.37937,-1.05919 -1.35898,-2.40644 0.0624,-2.94217 1.18732,-0.45081 1.33572,-0.89888 0.69592,-2.1011 -0.23257,-0.42213 -0.51753,-1.11449 -0.64878,-1.53936 -0.31987,-1.0388 -1.86528,-0.97776 -2.79645,0.1166 -1.04472,1.22217 -1.746,1.10582 -2.53458,-0.41901 -0.83228,-1.61213 -0.85279,-2.22905 -0.0624,-2.22905 0.39282,0 0.70727,-0.76875 0.89689,-2.18827 0.14528,-1.20471 0.48261,-2.30767 0.71849,-2.45314 0.63132,-0.39033 0.52064,-1.97876 -0.14591,-1.97876 -0.31176,0 -1.67323,1.08244 -3.02554,2.40363 -1.83616,1.79252 -2.6917,2.34253 -3.37116,2.16501 -0.66929,-0.17396 -1.5335,0.34918 -3.26353,1.98163 -1.29494,1.22224 -3.4887,2.98888 -4.87679,3.92729 -4.4074,2.97921 -11.63177,9.87797 -7.91044,7.55396 0.49696,-0.31177 1.06212,-0.40717 1.2571,-0.2039 0.39843,0.40156 -1.2513,1.85662 -4.56547,4.0172 -1.24836,0.81482 -2.38617,1.67323 -2.53457,1.90899 -0.14528,0.23257 -1.30947,0.9747 -2.58701,1.63825 -1.27736,0.66624 -2.9297,1.72861 -3.67432,2.36579 -0.74511,0.63749 -2.38031,1.75186 -3.63223,2.47933 -3.51638,2.04267 -2.70922,2.25797 1.12329,0.30241 1.87974,-0.96042 3.91674,-1.96711 4.52349,-2.23485 1.24257,-0.55057 1.44621,-0.67746 6.37743,-3.97174 1.95264,-1.3066 3.88744,-2.66557 4.29691,-3.02211 0.88759,-0.77074 1.6819,-0.40155 1.6819,0.78309 0,2.89547 2.1301,8.49886 3.51264,9.23848 0.84145,0.45081 0.89888,0.35791 0.88759,-1.40829 -0.005,-1.03886 -0.30553,-2.27556 -0.66312,-2.74708 -0.35479,-0.47138 -0.64878,-1.42874 -0.64878,-2.12416 0,-1.41722 -0.59048,-2.75281 -1.80997,-4.09788 -0.80049,-0.88142 -0.79126,-0.93679 0.34668,-2.53744 0.64055,-0.89888 1.34438,-1.63545 1.56561,-1.63545 0.23258,0 2.42396,-1.81577 4.89425,-4.0341 6.79557,-6.09983 7.36248,-6.31426 7.36248,-2.78772 0,1.81004 -0.1166,2.00202 -1.51898,2.58994 -1.21344,0.50631 -1.62958,1.01878 -2.07777,2.5433 -0.30865,1.05046 -0.50631,2.44728 -0.44208,3.10579 0.0624,0.70109 -0.29431,1.75174 -0.87837,2.5433 -1.52483,2.06026 -1.39682,5.23588 0.34918,8.83818 1.94671,4.00947 2.00208,4.61416 0.42774,4.64852 -1.30361,0.0312 -3.13553,1.71108 -2.67418,2.45887 0.38721,0.62521 1.5946,0.46328 2.47633,-0.33732 0.71544,-0.64573 1.02726,-0.66319 2.68291,-0.14528 1.03019,0.3261 2.61027,0.95118 3.51121,1.39395 0.90193,0.44146 2.00202,0.80354 2.45021,0.80354 0.44457,0 1.05338,0.23258 1.35018,0.5381 0.29742,0.29743 0.96347,0.54434 1.48412,0.5537 0.52064,0.006 1.03892,0.29118 1.15234,0.63138 0.14528,0.47949 -0.1166,0.55556 -1.1756,0.34356 -2.07478,-0.41589 -1.82462,0.87843 0.26251,1.40842 0.91116,0.23258 2.45014,0.61418 3.42035,0.85274 3.20125,0.79431 4.72839,0.59983 6.36933,-0.80354 z m -63.34563,-6.40761 c 1.2397,-1.33572 2.57542,-2.42982 2.96968,-2.42695 0.39594,0.002 0.96652,-0.29431 1.26881,-0.65801 0.30241,-0.36414 1.02389,-0.66318 1.60334,-0.66318 1.05924,0 2.39783,-0.59983 3.75905,-1.6849 0.40155,-0.31986 2.18827,-1.31532 3.9718,-2.21451 3.94537,-1.9845 10.96559,-6.56337 10.96559,-7.15036 0,-0.74206 -0.88447,-0.46515 -2.8575,0.89071 -1.05051,0.7246 -3.42478,2.00501 -5.27397,2.84883 -1.85075,0.84351 -4.20201,2.10104 -5.22902,2.79359 -4.94693,3.34148 -6.00905,3.91656 -8.26603,4.4743 -1.33566,0.32922 -2.78785,0.78614 -3.22931,1.01573 -0.98598,0.51253 -3.45053,4.31199 -3.1301,4.83027 0.47762,0.77386 1.2541,0.31176 3.4456,-2.05446 z m -34.769306,-0.54745 c -1.251256,-9.2123 -0.631371,-19.88838 1.556796,-26.8109 0.689789,-2.1854 1.257098,-4.14059 1.257098,-4.34723 0.0087,-1.26875 5.452728,-10.80154 8.282728,-14.50404 5.024564,-6.57216 8.521804,-9.54968 14.874784,-12.66326 6.21968,-3.04849 9.06646,-4.05561 15.29649,-5.41109 3.95783,-0.86097 5.83421,-0.99521 13.84622,-0.98087 6.6789,0.0125 10.25414,0.20389 12.79838,0.72154 4.36225,0.87325 7.14911,1.20185 7.47091,0.87837 0.54122,-0.54123 -0.82917,-1.42875 -2.20866,-1.42875 -0.80865,0 -1.92638,-0.17397 -2.48506,-0.39282 -3.93134,-1.51898 -19.15867,-2.08938 -25.28675,-0.94907 -9.39886,1.75173 -12.59225,2.71209 -18.09481,5.44594 -8.2775,4.11353 -15.78763,10.315 -19.99656,16.51292 -4.69518,6.91453 -8.101288,15.62956 -8.880659,22.72405 -0.602638,5.48965 -0.604696,18.13353 -0.0026,20.42916 0.704136,2.68878 0.788181,2.86916 1.341449,2.86916 0.357717,0 0.427427,-0.63444 0.232638,-2.09511 z M 106.2812,178.06648 c 0.61729,-0.48572 1.23383,-0.88141 1.37057,-0.88141 0.14528,0 1.69362,-0.98094 3.46101,-2.17674 1.76633,-1.19885 4.7022,-2.69457 6.52265,-3.32657 1.82176,-0.63132 3.70512,-1.37064 4.18754,-1.64144 0.48261,-0.26125 1.97291,-0.61105 3.31006,-0.7564 1.75186,-0.17458 2.43275,-0.44769 2.43275,-0.92244 0,-1.69936 -9.56752,0.23257 -15.25408,3.09525 -4.14808,2.08064 -9.68107,6.16125 -9.68107,7.13813 0,0.7072 2.55204,0.34045 3.65106,-0.52376 z m 5.79998,-9.59813 c 1.01242,-0.42899 1.65577,-0.57614 3.27314,-0.87325 1.61786,-0.29929 4.03534,-0.75334 5.37043,-1.01267 5.20209,-1.00338 10.16337,-1.00649 16.94796,-0.0125 3.59264,0.52688 7.35605,1.32107 8.36293,1.7634 5.75789,2.53183 8.11943,3.35825 8.99568,2.30175 1.4636,-7.87814 3.90502,-13.2747 3.53608,-17.64175 -0.81794,-0.43647 -10.56734,-1.2629 -13.13135,-1.42589 -3.26784,-0.20389 -13.37795,0.14529 -15.66716,0.52377 -1.455,0.2625 -3.97885,0.63444 -5.60526,0.85579 -3.12412,0.42462 -8.86431,2.4676 -13.61221,4.84218 -2.6422,1.321 -4.21448,2.35406 -8.1508,5.35335 -10.781845,10.25178 -15.497615,20.6633 -17.177595,29.72426 -0.5131,2.76746 -0.612677,16.68476 -0.306775,19.09064 0.746748,5.87263 2.423854,-0.56616 2.423854,-0.56616 0.647588,-10.47182 0.969147,-31.17141 24.741076,-42.92501 z m 39.24383,6.65889 c 3.3686,-0.55556 2.34253,-2.53457 -2.13589,-4.11004 -5.40785,-1.90331 -11.93112,-3.46799 -14.67407,-3.51837 -3.40172,-0.0623 -0.40717,2.08358 3.92902,2.8141 1.02184,0.17459 1.87115,0.66624 2.31634,1.34732 0.38721,0.59048 1.4492,1.28035 2.35999,1.53649 0.91116,0.26126 2.15341,0.8528 2.75861,1.32986 1.1524,0.91122 2.6044,1.0709 5.44488,0.59983 z"
       id="path850-5-3"
       inkscape:connector-curvature="0"
       sodipodi:nodetypes="ccccccccccsccccccccsccccccscscccccccccccssccccccccccccccccscccsccsccccccccccccccccccccccccscccccccccsccscccccccccccccccccccccccccscscsccccccccccccccccccccccccccccsscscccccccccscccccccccccccccccccccccccccccccsccscccccccccccccccscccsccscsccccccccccsccccccccccccccsccccccccccccscccsccccccsccccccsccccsccccccccccccccccccsscccccsscsccc" />
    <path
       style="fill:none;stroke:#000000;stroke-width:1.64974737px;stroke-linecap:butt;stroke-linejoin:miter;stroke-opacity:1"
       d="M 89.000942,215.1612 Z"
       id="path5196"
       inkscape:connector-curvature="0" />
  </g>
</svg>
